<svg xmlns="http://www.w3.org/2000/svg" viewBox="0 0 680 200" width="680" height="200">
  <style>
    .line { stroke: #e2e2e0; stroke-width: 0.7; fill: none; }
    .node { fill: #707070; }
    @media (prefers-color-scheme: dark) {
      .line { stroke: #242422; }
      .node { fill: #8a8a8a; }
    }
  </style>
  <!-- Row 0 -->
  <circle class="node" cx="15.0" cy="25.0" r="1.2"/>
  <circle class="node" cx="65.2" cy="22.1" r="1.2"/>
  <circle class="node" cx="114.8" cy="20.8" r="1.2"/>
  <circle class="node" cx="165.1" cy="21.5" r="1.2"/>
  <circle class="node" cx="215.0" cy="24.0" r="1.2"/>
  <circle class="node" cx="264.7" cy="27.6" r="1.2"/>
  <circle class="node" cx="314.9" cy="31.2" r="1.2"/>
  <circle class="node" cx="365.3" cy="33.8" r="1.2"/>
  <circle class="node" cx="415.0" cy="34.6" r="1.2"/>
  <circle class="node" cx="464.8" cy="33.2" r="1.2"/>
  <circle class="node" cx="515.1" cy="30.1" r="1.2"/>
  <circle class="node" cx="565.0" cy="26.0" r="1.2"/>
  <circle class="node" cx="614.7" cy="22.3" r="1.2"/>
  <circle class="node" cx="664.9" cy="20.4" r="1.2"/>
  <!-- Row 1 -->
  <circle class="node" cx="12.2" cy="75.3" r="1.2"/>
  <circle class="node" cx="62.8" cy="71.8" r="1.2"/>
  <circle class="node" cx="112.6" cy="70.2" r="1.2"/>
  <circle class="node" cx="163.3" cy="71.0" r="1.2"/>
  <circle class="node" cx="213.0" cy="73.9" r="1.2"/>
  <circle class="node" cx="262.5" cy="78.0" r="1.2"/>
  <circle class="node" cx="313.1" cy="82.0" r="1.2"/>
  <circle class="node" cx="363.8" cy="84.6" r="1.2"/>
  <circle class="node" cx="413.2" cy="85.0" r="1.2"/>
  <circle class="node" cx="463.0" cy="83.0" r="1.2"/>
  <circle class="node" cx="513.4" cy="79.4" r="1.2"/>
  <circle class="node" cx="563.2" cy="75.0" r="1.2"/>
  <circle class="node" cx="612.9" cy="71.5" r="1.2"/>
  <circle class="node" cx="663.5" cy="70.0" r="1.2"/>
  <!-- Row 2 -->
  <circle class="node" cx="9.0" cy="126.0" r="1.2"/>
  <circle class="node" cx="59.8" cy="122.0" r="1.2"/>
  <circle class="node" cx="110.2" cy="120.0" r="1.2"/>
  <circle class="node" cx="161.0" cy="121.2" r="1.2"/>
  <circle class="node" cx="211.0" cy="124.5" r="1.2"/>
  <circle class="node" cx="260.4" cy="129.0" r="1.2"/>
  <circle class="node" cx="311.2" cy="133.2" r="1.2"/>
  <circle class="node" cx="362.0" cy="135.8" r="1.2"/>
  <circle class="node" cx="411.5" cy="136.0" r="1.2"/>
  <circle class="node" cx="461.2" cy="133.6" r="1.2"/>
  <circle class="node" cx="511.8" cy="129.6" r="1.2"/>
  <circle class="node" cx="561.5" cy="125.0" r="1.2"/>
  <circle class="node" cx="611.0" cy="121.4" r="1.2"/>
  <circle class="node" cx="662.0" cy="120.0" r="1.2"/>
  <!-- Row 3 -->
  <circle class="node" cx="6.5" cy="176.8" r="1.2"/>
  <circle class="node" cx="57.0" cy="172.5" r="1.2"/>
  <circle class="node" cx="108.0" cy="170.5" r="1.2"/>
  <circle class="node" cx="159.2" cy="171.8" r="1.2"/>
  <circle class="node" cx="209.2" cy="175.2" r="1.2"/>
  <circle class="node" cx="258.8" cy="180.0" r="1.2"/>
  <circle class="node" cx="309.5" cy="184.0" r="1.2"/>
  <circle class="node" cx="360.5" cy="186.5" r="1.2"/>
  <circle class="node" cx="410.0" cy="186.8" r="1.2"/>
  <circle class="node" cx="459.5" cy="184.2" r="1.2"/>
  <circle class="node" cx="510.2" cy="180.0" r="1.2"/>
  <circle class="node" cx="560.0" cy="175.5" r="1.2"/>
  <circle class="node" cx="609.5" cy="172.0" r="1.2"/>
  <circle class="node" cx="660.5" cy="170.4" r="1.2"/>
  <!-- Horizontal lines row 0 -->
  <line class="line" x1="15.0" y1="25.0" x2="65.2" y2="22.1"/>
  <line class="line" x1="65.2" y1="22.1" x2="114.8" y2="20.8"/>
  <line class="line" x1="114.8" y1="20.8" x2="165.1" y2="21.5"/>
  <line class="line" x1="165.1" y1="21.5" x2="215.0" y2="24.0"/>
  <line class="line" x1="215.0" y1="24.0" x2="264.7" y2="27.6"/>
  <line class="line" x1="264.7" y1="27.6" x2="314.9" y2="31.2"/>
  <line class="line" x1="314.9" y1="31.2" x2="365.3" y2="33.8"/>
  <line class="line" x1="365.3" y1="33.8" x2="415.0" y2="34.6"/>
  <line class="line" x1="415.0" y1="34.6" x2="464.8" y2="33.2"/>
  <line class="line" x1="464.8" y1="33.2" x2="515.1" y2="30.1"/>
  <line class="line" x1="515.1" y1="30.1" x2="565.0" y2="26.0"/>
  <line class="line" x1="565.0" y1="26.0" x2="614.7" y2="22.3"/>
  <line class="line" x1="614.7" y1="22.3" x2="664.9" y2="20.4"/>
  <!-- Horizontal lines row 1 -->
  <line class="line" x1="12.2" y1="75.3" x2="62.8" y2="71.8"/>
  <line class="line" x1="62.8" y1="71.8" x2="112.6" y2="70.2"/>
  <line class="line" x1="112.6" y1="70.2" x2="163.3" y2="71.0"/>
  <line class="line" x1="163.3" y1="71.0" x2="213.0" y2="73.9"/>
  <line class="line" x1="213.0" y1="73.9" x2="262.5" y2="78.0"/>
  <line class="line" x1="262.5" y1="78.0" x2="313.1" y2="82.0"/>
  <line class="line" x1="313.1" y1="82.0" x2="363.8" y2="84.6"/>
  <line class="line" x1="363.8" y1="84.6" x2="413.2" y2="85.0"/>
  <line class="line" x1="413.2" y1="85.0" x2="463.0" y2="83.0"/>
  <line class="line" x1="463.0" y1="83.0" x2="513.4" y2="79.4"/>
  <line class="line" x1="513.4" y1="79.4" x2="563.2" y2="75.0"/>
  <line class="line" x1="563.2" y1="75.0" x2="612.9" y2="71.5"/>
  <line class="line" x1="612.9" y1="71.5" x2="663.5" y2="70.0"/>
  <!-- Horizontal lines row 2 -->
  <line class="line" x1="9.0" y1="126.0" x2="59.8" y2="122.0"/>
  <line class="line" x1="59.8" y1="122.0" x2="110.2" y2="120.0"/>
  <line class="line" x1="110.2" y1="120.0" x2="161.0" y2="121.2"/>
  <line class="line" x1="161.0" y1="121.2" x2="211.0" y2="124.5"/>
  <line class="line" x1="211.0" y1="124.5" x2="260.4" y2="129.0"/>
  <line class="line" x1="260.4" y1="129.0" x2="311.2" y2="133.2"/>
  <line class="line" x1="311.2" y1="133.2" x2="362.0" y2="135.8"/>
  <line class="line" x1="362.0" y1="135.8" x2="411.5" y2="136.0"/>
  <line class="line" x1="411.5" y1="136.0" x2="461.2" y2="133.6"/>
  <line class="line" x1="461.2" y1="133.6" x2="511.8" y2="129.6"/>
  <line class="line" x1="511.8" y1="129.6" x2="561.5" y2="125.0"/>
  <line class="line" x1="561.5" y1="125.0" x2="611.0" y2="121.4"/>
  <line class="line" x1="611.0" y1="121.4" x2="662.0" y2="120.0"/>
  <!-- Horizontal lines row 3 -->
  <line class="line" x1="6.5" y1="176.8" x2="57.0" y2="172.5"/>
  <line class="line" x1="57.0" y1="172.5" x2="108.0" y2="170.5"/>
  <line class="line" x1="108.0" y1="170.5" x2="159.2" y2="171.8"/>
  <line class="line" x1="159.2" y1="171.8" x2="209.2" y2="175.2"/>
  <line class="line" x1="209.2" y1="175.2" x2="258.8" y2="180.0"/>
  <line class="line" x1="258.8" y1="180.0" x2="309.5" y2="184.0"/>
  <line class="line" x1="309.5" y1="184.0" x2="360.5" y2="186.5"/>
  <line class="line" x1="360.5" y1="186.5" x2="410.0" y2="186.8"/>
  <line class="line" x1="410.0" y1="186.8" x2="459.5" y2="184.2"/>
  <line class="line" x1="459.5" y1="184.2" x2="510.2" y2="180.0"/>
  <line class="line" x1="510.2" y1="180.0" x2="560.0" y2="175.5"/>
  <line class="line" x1="560.0" y1="175.5" x2="609.5" y2="172.0"/>
  <line class="line" x1="609.5" y1="172.0" x2="660.5" y2="170.4"/>
  <!-- Vertical lines col 0 -->
  <line class="line" x1="15.0" y1="25.0" x2="12.2" y2="75.3"/>
  <line class="line" x1="12.2" y1="75.3" x2="9.0" y2="126.0"/>
  <line class="line" x1="9.0" y1="126.0" x2="6.5" y2="176.8"/>
  <!-- Vertical lines col 1 -->
  <line class="line" x1="65.2" y1="22.1" x2="62.8" y2="71.8"/>
  <line class="line" x1="62.8" y1="71.8" x2="59.8" y2="122.0"/>
  <line class="line" x1="59.8" y1="122.0" x2="57.0" y2="172.5"/>
  <!-- Vertical lines col 2 -->
  <line class="line" x1="114.8" y1="20.8" x2="112.6" y2="70.2"/>
  <line class="line" x1="112.6" y1="70.2" x2="110.2" y2="120.0"/>
  <line class="line" x1="110.2" y1="120.0" x2="108.0" y2="170.5"/>
  <!-- Vertical lines col 3 -->
  <line class="line" x1="165.1" y1="21.5" x2="163.3" y2="71.0"/>
  <line class="line" x1="163.3" y1="71.0" x2="161.0" y2="121.2"/>
  <line class="line" x1="161.0" y1="121.2" x2="159.2" y2="171.8"/>
  <!-- Vertical lines col 4 -->
  <line class="line" x1="215.0" y1="24.0" x2="213.0" y2="73.9"/>
  <line class="line" x1="213.0" y1="73.9" x2="211.0" y2="124.5"/>
  <line class="line" x1="211.0" y1="124.5" x2="209.2" y2="175.2"/>
  <!-- Vertical lines col 5 -->
  <line class="line" x1="264.7" y1="27.6" x2="262.5" y2="78.0"/>
  <line class="line" x1="262.5" y1="78.0" x2="260.4" y2="129.0"/>
  <line class="line" x1="260.4" y1="129.0" x2="258.8" y2="180.0"/>
  <!-- Vertical lines col 6 -->
  <line class="line" x1="314.9" y1="31.2" x2="313.1" y2="82.0"/>
  <line class="line" x1="313.1" y1="82.0" x2="311.2" y2="133.2"/>
  <line class="line" x1="311.2" y1="133.2" x2="309.5" y2="184.0"/>
  <!-- Vertical lines col 7 -->
  <line class="line" x1="365.3" y1="33.8" x2="363.8" y2="84.6"/>
  <line class="line" x1="363.8" y1="84.6" x2="362.0" y2="135.8"/>
  <line class="line" x1="362.0" y1="135.8" x2="360.5" y2="186.5"/>
  <!-- Vertical lines col 8 -->
  <line class="line" x1="415.0" y1="34.6" x2="413.2" y2="85.0"/>
  <line class="line" x1="413.2" y1="85.0" x2="411.5" y2="136.0"/>
  <line class="line" x1="411.5" y1="136.0" x2="410.0" y2="186.8"/>
  <!-- Vertical lines col 9 -->
  <line class="line" x1="464.8" y1="33.2" x2="463.0" y2="83.0"/>
  <line class="line" x1="463.0" y1="83.0" x2="461.2" y2="133.6"/>
  <line class="line" x1="461.2" y1="133.6" x2="459.5" y2="184.2"/>
  <!-- Vertical lines col 10 -->
  <line class="line" x1="515.1" y1="30.1" x2="513.4" y2="79.4"/>
  <line class="line" x1="513.4" y1="79.4" x2="511.8" y2="129.6"/>
  <line class="line" x1="511.8" y1="129.6" x2="510.2" y2="180.0"/>
  <!-- Vertical lines col 11 -->
  <line class="line" x1="565.0" y1="26.0" x2="563.2" y2="75.0"/>
  <line class="line" x1="563.2" y1="75.0" x2="561.5" y2="125.0"/>
  <line class="line" x1="561.5" y1="125.0" x2="560.0" y2="175.5"/>
  <!-- Vertical lines col 12 -->
  <line class="line" x1="614.7" y1="22.3" x2="612.9" y2="71.5"/>
  <line class="line" x1="612.9" y1="71.5" x2="611.0" y2="121.4"/>
  <line class="line" x1="611.0" y1="121.4" x2="609.5" y2="172.0"/>
  <!-- Vertical lines col 13 -->
  <line class="line" x1="664.9" y1="20.4" x2="663.5" y2="70.0"/>
  <line class="line" x1="663.5" y1="70.0" x2="662.0" y2="120.0"/>
  <line class="line" x1="662.0" y1="120.0" x2="660.5" y2="170.4"/>
</svg>
